<svg width="648" height="232" viewBox="0 0 648 232" fill="none" xmlns="http://www.w3.org/2000/svg">
<path d="M62.208 46.992V114H48.768V85.488H20.064V114H6.624V46.992H20.064V74.544H48.768V46.992H62.208ZM82.2525 54.48C79.8845 54.48 77.9005 53.744 76.3005 52.272C74.7645 50.736 73.9965 48.848 73.9965 46.608C73.9965 44.368 74.7645 42.512 76.3005 41.04C77.9005 39.504 79.8845 38.736 82.2525 38.736C84.6205 38.736 86.5725 39.504 88.1085 41.04C89.7085 42.512 90.5085 44.368 90.5085 46.608C90.5085 48.848 89.7085 50.736 88.1085 52.272C86.5725 53.744 84.6205 54.48 82.2525 54.48ZM88.8765 60.816V114H75.4365V60.816H88.8765ZM116.843 99.888L105.611 126.864H96.9713L103.211 99.888H116.843ZM162.845 46.992V114H149.405V46.992H162.845ZM195.543 87.216C195.543 81.84 196.599 77.072 198.711 72.912C200.887 68.752 203.799 65.552 207.447 63.312C211.159 61.072 215.287 59.952 219.831 59.952C223.799 59.952 227.255 60.752 230.199 62.352C233.207 63.952 235.607 65.968 237.399 68.4V60.816H250.935V114H237.399V106.224C235.671 108.72 233.271 110.8 230.199 112.464C227.191 114.064 223.703 114.864 219.735 114.864C215.255 114.864 211.159 113.712 207.447 111.408C203.799 109.104 200.887 105.872 198.711 101.712C196.599 97.488 195.543 92.656 195.543 87.216ZM237.399 87.408C237.399 84.144 236.759 81.36 235.479 79.056C234.199 76.688 232.471 74.896 230.295 73.68C228.119 72.4 225.783 71.76 223.287 71.76C220.791 71.76 218.487 72.368 216.375 73.584C214.263 74.8 212.535 76.592 211.191 78.96C209.911 81.264 209.271 84.016 209.271 87.216C209.271 90.416 209.911 93.232 211.191 95.664C212.535 98.032 214.263 99.856 216.375 101.136C218.551 102.416 220.855 103.056 223.287 103.056C225.783 103.056 228.119 102.448 230.295 101.232C232.471 99.952 234.199 98.16 235.479 95.856C236.759 93.488 237.399 90.672 237.399 87.408ZM330.11 60.048C336.638 60.048 341.886 62.064 345.854 66.096C349.886 70.064 351.902 75.632 351.902 82.8V114H338.462V84.624C338.462 80.464 337.406 77.296 335.294 75.12C333.182 72.88 330.302 71.76 326.654 71.76C323.006 71.76 320.094 72.88 317.918 75.12C315.806 77.296 314.75 80.464 314.75 84.624V114H301.31V84.624C301.31 80.464 300.254 77.296 298.142 75.12C296.03 72.88 293.15 71.76 289.502 71.76C285.79 71.76 282.846 72.88 280.67 75.12C278.558 77.296 277.502 80.464 277.502 84.624V114H264.062V60.816H277.502V67.248C279.23 65.008 281.438 63.248 284.126 61.968C286.878 60.688 289.886 60.048 293.15 60.048C297.31 60.048 301.022 60.944 304.286 62.736C307.55 64.464 310.078 66.96 311.87 70.224C313.598 67.152 316.094 64.688 319.358 62.832C322.686 60.976 326.27 60.048 330.11 60.048ZM62.208 147.992V215H48.768V186.488H20.064V215H6.624V147.992H20.064V175.544H48.768V147.992H62.208ZM71.9805 188.216C71.9805 182.84 73.0365 178.072 75.1485 173.912C77.3245 169.752 80.2365 166.552 83.8845 164.312C87.5965 162.072 91.7245 160.952 96.2685 160.952C100.237 160.952 103.693 161.752 106.637 163.352C109.645 164.952 112.045 166.968 113.837 169.4V161.816H127.373V215H113.837V207.224C112.109 209.72 109.709 211.8 106.637 213.464C103.629 215.064 100.141 215.864 96.1725 215.864C91.6925 215.864 87.5965 214.712 83.8845 212.408C80.2365 210.104 77.3245 206.872 75.1485 202.712C73.0365 198.488 71.9805 193.656 71.9805 188.216ZM113.837 188.408C113.837 185.144 113.197 182.36 111.917 180.056C110.637 177.688 108.909 175.896 106.733 174.68C104.557 173.4 102.221 172.76 99.7245 172.76C97.2285 172.76 94.9245 173.368 92.8125 174.584C90.7005 175.8 88.9725 177.592 87.6285 179.96C86.3485 182.264 85.7085 185.016 85.7085 188.216C85.7085 191.416 86.3485 194.232 87.6285 196.664C88.9725 199.032 90.7005 200.856 92.8125 202.136C94.9885 203.416 97.2925 204.056 99.7245 204.056C102.221 204.056 104.557 203.448 106.733 202.232C108.909 200.952 110.637 199.16 111.917 196.856C113.197 194.488 113.837 191.672 113.837 188.408ZM160.851 215.864C156.499 215.864 152.595 215.096 149.139 213.56C145.683 211.96 142.931 209.816 140.883 207.128C138.899 204.44 137.811 201.464 137.619 198.2H151.155C151.411 200.248 152.403 201.944 154.131 203.288C155.923 204.632 158.131 205.304 160.755 205.304C163.315 205.304 165.299 204.792 166.707 203.768C168.179 202.744 168.915 201.432 168.915 199.832C168.915 198.104 168.019 196.824 166.227 195.992C164.499 195.096 161.715 194.136 157.875 193.112C153.907 192.152 150.643 191.16 148.083 190.136C145.587 189.112 143.411 187.544 141.555 185.432C139.763 183.32 138.867 180.472 138.867 176.888C138.867 173.944 139.699 171.256 141.363 168.824C143.091 166.392 145.523 164.472 148.659 163.064C151.859 161.656 155.603 160.952 159.891 160.952C166.227 160.952 171.283 162.552 175.059 165.752C178.835 168.888 180.915 173.144 181.299 178.52H168.435C168.243 176.408 167.347 174.744 165.747 173.528C164.211 172.248 162.131 171.608 159.507 171.608C157.075 171.608 155.187 172.056 153.843 172.952C152.563 173.848 151.923 175.096 151.923 176.696C151.923 178.488 152.819 179.864 154.611 180.824C156.403 181.72 159.187 182.648 162.963 183.608C166.803 184.568 169.971 185.56 172.467 186.584C174.963 187.608 177.107 189.208 178.899 191.384C180.755 193.496 181.715 196.312 181.779 199.832C181.779 202.904 180.915 205.656 179.187 208.088C177.523 210.52 175.091 212.44 171.891 213.848C168.755 215.192 165.075 215.864 160.851 215.864ZM213.164 215.864C208.812 215.864 204.908 215.096 201.452 213.56C197.996 211.96 195.244 209.816 193.196 207.128C191.212 204.44 190.124 201.464 189.932 198.2H203.468C203.724 200.248 204.716 201.944 206.444 203.288C208.236 204.632 210.444 205.304 213.068 205.304C215.628 205.304 217.612 204.792 219.02 203.768C220.492 202.744 221.228 201.432 221.228 199.832C221.228 198.104 220.332 196.824 218.54 195.992C216.812 195.096 214.028 194.136 210.188 193.112C206.22 192.152 202.956 191.16 200.396 190.136C197.9 189.112 195.724 187.544 193.868 185.432C192.076 183.32 191.18 180.472 191.18 176.888C191.18 173.944 192.012 171.256 193.676 168.824C195.404 166.392 197.836 164.472 200.972 163.064C204.172 161.656 207.916 160.952 212.204 160.952C218.54 160.952 223.596 162.552 227.372 165.752C231.148 168.888 233.228 173.144 233.612 178.52H220.748C220.556 176.408 219.66 174.744 218.06 173.528C216.524 172.248 214.444 171.608 211.82 171.608C209.388 171.608 207.5 172.056 206.156 172.952C204.876 173.848 204.236 175.096 204.236 176.696C204.236 178.488 205.132 179.864 206.924 180.824C208.716 181.72 211.5 182.648 215.276 183.608C219.116 184.568 222.284 185.56 224.78 186.584C227.276 187.608 229.42 189.208 231.212 191.384C233.068 193.496 234.028 196.312 234.092 199.832C234.092 202.904 233.228 205.656 231.5 208.088C229.836 210.52 227.404 212.44 224.204 213.848C221.068 215.192 217.388 215.864 213.164 215.864ZM241.668 188.216C241.668 182.84 242.724 178.072 244.836 173.912C247.012 169.752 249.924 166.552 253.572 164.312C257.284 162.072 261.412 160.952 265.956 160.952C269.924 160.952 273.38 161.752 276.324 163.352C279.332 164.952 281.732 166.968 283.524 169.4V161.816H297.06V215H283.524V207.224C281.796 209.72 279.396 211.8 276.324 213.464C273.316 215.064 269.828 215.864 265.86 215.864C261.38 215.864 257.284 214.712 253.572 212.408C249.924 210.104 247.012 206.872 244.836 202.712C242.724 198.488 241.668 193.656 241.668 188.216ZM283.524 188.408C283.524 185.144 282.884 182.36 281.604 180.056C280.324 177.688 278.596 175.896 276.42 174.68C274.244 173.4 271.908 172.76 269.412 172.76C266.916 172.76 264.612 173.368 262.5 174.584C260.388 175.8 258.66 177.592 257.316 179.96C256.036 182.264 255.396 185.016 255.396 188.216C255.396 191.416 256.036 194.232 257.316 196.664C258.66 199.032 260.388 200.856 262.5 202.136C264.676 203.416 266.98 204.056 269.412 204.056C271.908 204.056 274.244 203.448 276.42 202.232C278.596 200.952 280.324 199.16 281.604 196.856C282.884 194.488 283.524 191.672 283.524 188.408ZM339.659 161.048C345.995 161.048 351.115 163.064 355.019 167.096C358.923 171.064 360.875 176.632 360.875 183.8V215H347.435V185.624C347.435 181.4 346.379 178.168 344.267 175.928C342.155 173.624 339.275 172.472 335.627 172.472C331.915 172.472 328.971 173.624 326.795 175.928C324.683 178.168 323.627 181.4 323.627 185.624V215H310.187V161.816H323.627V168.44C325.419 166.136 327.691 164.344 330.443 163.064C333.259 161.72 336.331 161.048 339.659 161.048Z" fill="#1B1C37"/>
<path d="M389.906 221.72H485.906V125.72H389.906V221.72Z" fill="black"/>
<path fill-rule="evenodd" clip-rule="evenodd" d="M336.702 22.4259C338.498 16.0259 339.404 9.32534 340.234 2.82534C340.408 1.42534 339.437 0.125535 338.069 0.0255345C336.7 -0.174466 335.448 0.82612 335.274 2.12612C334.475 8.42612 333.62 14.9255 331.891 21.0255C331.516 22.3255 332.288 23.7261 333.616 24.1261C334.943 24.5261 336.326 23.7259 336.702 22.4259Z" fill="#1B1C37"/>
<path fill-rule="evenodd" clip-rule="evenodd" d="M362.165 41.8251C372.676 31.5251 381.834 19.9251 392.627 9.8251C393.635 8.9251 393.689 7.3251 392.748 6.3251C391.806 5.3251 390.222 5.22549 389.214 6.22549C378.39 16.3255 369.202 27.9255 358.66 38.2255C357.676 39.2255 357.662 40.8251 358.63 41.8251C359.597 42.7251 361.181 42.8251 362.165 41.8251Z" fill="#1B1C37"/>
<path fill-rule="evenodd" clip-rule="evenodd" d="M402.594 61.1264C396.578 61.4264 390.562 61.7259 384.545 62.0259C383.167 62.0259 382.103 63.2264 382.17 64.6264C382.238 66.0264 383.411 67.0259 384.79 67.0259C390.816 66.7259 396.841 66.4264 402.866 66.1264C404.244 66.0264 405.301 64.8262 405.226 63.4262C405.151 62.1262 403.971 61.0264 402.594 61.1264Z" fill="#1B1C37"/>
</svg>
