<svg width="83" height="68" viewBox="0 0 83 68" fill="none" xmlns="http://www.w3.org/2000/svg">
<path d="M22.4389 8.68705C22.4389 13.4848 18.5495 17.3741 13.7518 17.3741C8.95408 17.3741 5.06476 13.4848 5.06476 8.68705C5.06476 3.88933 8.95408 0 13.7518 0C18.5495 0 22.4389 3.88933 22.4389 8.68705Z" fill="#EDEEFF"/>
<path d="M53.2158 8.68705C53.2158 13.4848 49.3265 17.3741 44.5288 17.3741C39.7311 17.3741 35.8417 13.4848 35.8417 8.68705C35.8417 3.88933 39.7311 0 44.5288 0C49.3265 0 53.2158 3.88933 53.2158 8.68705Z" fill="#EDEEFF"/>
<path d="M83 8.68705C83 13.4848 79.1107 17.3741 74.313 17.3741C69.5152 17.3741 65.6259 13.4848 65.6259 8.68705C65.6259 3.88933 69.5152 0 74.313 0C79.1107 0 83 3.88933 83 8.68705Z" fill="#EDEEFF"/>
<path d="M22.4389 34.0036C22.4389 38.8013 18.5495 42.6906 13.7518 42.6906C8.95408 42.6906 5.06476 38.8013 5.06476 34.0036C5.06476 29.2059 8.95408 25.3165 13.7518 25.3165C18.5495 25.3165 22.4389 29.2059 22.4389 34.0036Z" fill="#EDEEFF"/>
<path d="M53.2158 34.0036C53.2158 38.8013 49.3265 42.6906 44.5288 42.6906C39.7311 42.6906 35.8417 38.8013 35.8417 34.0036C35.8417 29.2059 39.7311 25.3165 44.5288 25.3165C49.3265 25.3165 53.2158 29.2059 53.2158 34.0036Z" fill="#EDEEFF"/>
<path d="M83 34.0036C83 38.8013 79.1107 42.6906 74.313 42.6906C69.5152 42.6906 65.6259 38.8013 65.6259 34.0036C65.6259 29.2059 69.5152 25.3165 74.313 25.3165C79.1107 25.3165 83 29.2059 83 34.0036Z" fill="#EDEEFF"/>
<path d="M22.4389 59.3202C22.4389 64.1179 18.5495 68.0072 13.7518 68.0072C8.95408 68.0072 5.06476 64.1179 5.06476 59.3202C5.06476 54.5224 8.95408 50.6331 13.7518 50.6331C18.5495 50.6331 22.4389 54.5224 22.4389 59.3202Z" fill="#EDEEFF"/>
<path d="M53.2158 59.3202C53.2158 64.1179 49.3265 68.0072 44.5288 68.0072C39.7311 68.0072 35.8417 64.1179 35.8417 59.3202C35.8417 54.5224 39.7311 50.6331 44.5288 50.6331C49.3265 50.6331 53.2158 54.5224 53.2158 59.3202Z" fill="#EDEEFF"/>
<path d="M83 59.3202C83 64.1179 79.1107 68.0072 74.313 68.0072C69.5152 68.0072 65.6259 64.1179 65.6259 59.3202C65.6259 54.5224 69.5152 50.6331 74.313 50.6331C79.1107 50.6331 83 54.5224 83 59.3202Z" fill="#EDEEFF"/>
</svg>
