<svg width="227" height="127" viewBox="0 0 227 127" fill="none" xmlns="http://www.w3.org/2000/svg">
<path fill-rule="evenodd" clip-rule="evenodd" d="M183.478 88.4748C197.407 88.8114 211.64 88.1382 224.958 92.9113C225.751 93.1928 226.624 92.7828 226.911 91.9873C227.192 91.1918 226.783 90.3167 225.989 90.0291C212.36 85.1459 197.803 85.7578 183.552 85.4151C182.709 85.3907 182.007 86.0638 181.988 86.9083C181.964 87.7527 182.636 88.4503 183.478 88.4748Z" fill="url(#paint0_linear_16_84)"/>
<path fill-rule="evenodd" clip-rule="evenodd" d="M182.227 68.2094C186.568 64.2061 191.307 61.2071 197.034 59.7207C197.852 59.5089 198.341 58.6736 198.133 57.8561C197.919 57.0385 197.083 56.5472 196.271 56.7589C190.043 58.3744 184.883 61.6066 180.163 65.9569C179.54 66.5284 179.497 67.4971 180.071 68.1188C180.639 68.7399 181.61 68.7809 182.227 68.2094Z" fill="url(#paint1_linear_16_84)"/>
<path fill-rule="evenodd" clip-rule="evenodd" d="M170.149 24.5034C172.14 17.665 176.06 12.3155 182.068 8.45238C182.776 7.99649 182.984 7.04923 182.526 6.33878C182.074 5.62833 181.128 5.42148 180.419 5.87737C173.77 10.1548 169.422 16.0746 167.218 23.646C166.98 24.4562 167.45 25.3068 168.256 25.5431C169.068 25.7799 169.917 25.3136 170.149 24.5034Z" fill="url(#paint2_linear_16_84)"/>
<path fill-rule="evenodd" clip-rule="evenodd" d="M101.546 15.2228C100.361 16.6198 99.2989 18.1252 98.3952 19.7278C97.9922 20.4413 97.2839 21.9577 97.174 23.2581C97.0518 24.6435 97.522 25.8123 98.731 26.4279C100.337 27.2442 101.619 27.1592 102.608 26.6653C103.561 26.1911 104.306 25.2591 104.776 24.0095C105.674 21.6212 105.539 17.971 105.069 15.888C106.333 14.5809 107.719 13.3955 109.203 12.3418C120.255 4.49376 136.467 7.3876 148.942 19.122C153.308 23.2305 155.408 31.8588 156.501 41.1681C158.205 55.6629 157.234 71.8522 157.1 76.5953C157.069 77.7666 157.179 78.4617 157.24 78.6006C157.527 79.2835 158.034 79.461 158.388 79.5283C158.901 79.6201 159.31 79.5222 159.64 79.3509C160.086 79.1159 160.452 78.7022 160.623 78.0639C160.715 77.7115 160.739 77.2207 160.727 76.6975C160.715 76.3346 160.641 75.9381 160.715 75.678C161.191 74.0124 161.765 72.3858 162.327 70.7477C164.201 65.2409 166.625 60.0805 169.318 54.9262C177.873 38.5484 186.147 21.2436 200.173 8.76567C200.802 8.20575 200.863 7.23768 200.301 6.60616C199.745 5.97465 198.78 5.91711 198.145 6.47764C183.839 19.2022 175.339 36.805 166.613 53.5071C164.323 57.8916 162.223 62.2822 160.476 66.8748C160.654 58.7508 160.586 47.5053 159.103 37.5552C157.784 28.7061 155.274 20.8856 151.03 16.8915C137.365 4.03665 119.541 1.24809 107.438 9.84574C106.144 10.7661 104.91 11.7782 103.763 12.876C97.4304 1.41761 83.8747 -3.17497 71.8945 2.30549C71.1251 2.65613 70.7892 3.56425 71.1373 4.33222C71.4915 5.1002 72.3951 5.43922 73.1645 5.08858C83.9602 0.150289 96.2031 4.55741 101.546 15.2228ZM102.431 19.059C101.937 19.759 101.479 20.4848 101.051 21.235C100.825 21.6377 100.435 22.4118 100.27 23.1693C100.233 23.3468 100.227 23.6246 100.227 23.7531C100.648 23.9612 100.978 24.0615 101.247 23.9263C101.583 23.7599 101.754 23.3682 101.918 22.9307C102.334 21.8329 102.468 20.3777 102.431 19.059Z" fill="url(#paint3_linear_16_84)"/>
<path d="M144.796 126.576C141.895 126.576 139.292 126.064 136.988 125.04C134.684 123.973 132.85 122.544 131.484 120.752C130.162 118.96 129.436 116.976 129.308 114.8H138.332C138.503 116.165 139.164 117.296 140.316 118.192C141.511 119.088 142.983 119.536 144.732 119.536C146.439 119.536 147.762 119.195 148.7 118.512C149.682 117.829 150.172 116.955 150.172 115.888C150.172 114.736 149.575 113.883 148.38 113.328C147.228 112.731 145.372 112.091 142.812 111.408C140.167 110.768 137.991 110.107 136.284 109.424C134.62 108.741 133.17 107.696 131.932 106.288C130.738 104.88 130.14 102.981 130.14 100.592C130.14 98.6293 130.695 96.8373 131.804 95.216C132.956 93.5946 134.578 92.3146 136.668 91.376C138.802 90.4373 141.298 89.968 144.156 89.968C148.38 89.968 151.751 91.0346 154.268 93.168C156.786 95.2586 158.172 98.096 158.428 101.68H149.852C149.724 100.272 149.127 99.1626 148.06 98.352C147.036 97.4986 145.65 97.072 143.9 97.072C142.279 97.072 141.02 97.3706 140.124 97.968C139.271 98.5653 138.844 99.3973 138.844 100.464C138.844 101.659 139.442 102.576 140.636 103.216C141.831 103.813 143.687 104.432 146.204 105.072C148.764 105.712 150.876 106.373 152.54 107.056C154.204 107.739 155.634 108.805 156.828 110.256C158.066 111.664 158.706 113.541 158.748 115.888C158.748 117.936 158.172 119.771 157.02 121.392C155.911 123.013 154.29 124.293 152.156 125.232C150.066 126.128 147.612 126.576 144.796 126.576Z" fill="url(#paint4_linear_16_84)"/>
<path d="M122.376 78.64V126H113.416V78.64H122.376Z" fill="url(#paint5_linear_16_84)"/>
<path d="M104.563 78.64V126H95.6035V78.64H104.563Z" fill="url(#paint6_linear_16_84)"/>
<path d="M82.335 86.32C80.7563 86.32 79.4337 85.8293 78.367 84.848C77.343 83.824 76.831 82.5653 76.831 81.072C76.831 79.5786 77.343 78.3413 78.367 77.36C79.4337 76.336 80.7563 75.824 82.335 75.824C83.9137 75.824 85.215 76.336 86.239 77.36C87.3057 78.3413 87.839 79.5786 87.839 81.072C87.839 82.5653 87.3057 83.824 86.239 84.848C85.215 85.8293 83.9137 86.32 82.335 86.32ZM86.751 90.544V126H77.791V90.544H86.751Z" fill="url(#paint7_linear_16_84)"/>
<path d="M61.408 126L49.376 110.896V126H40.416V78.64H49.376V105.584L61.28 90.544H72.928L57.312 108.336L73.056 126H61.408Z" fill="url(#paint8_linear_16_84)"/>
<path d="M16.84 126.448C13.7253 126.448 10.9093 125.915 8.39198 124.848C5.91731 123.781 3.95464 122.245 2.50398 120.24C1.05331 118.235 0.306644 115.867 0.263977 113.136H9.86398C9.99198 114.971 10.632 116.421 11.784 117.488C12.9786 118.555 14.6 119.088 16.648 119.088C18.7386 119.088 20.3813 118.597 21.576 117.616C22.7706 116.592 23.368 115.269 23.368 113.648C23.368 112.325 22.9626 111.237 22.152 110.384C21.3413 109.531 20.3173 108.869 19.08 108.4C17.8853 107.888 16.2213 107.333 14.088 106.736C11.1866 105.883 8.81864 105.051 6.98398 104.24C5.19198 103.387 3.63464 102.128 2.31198 100.464C1.03198 98.7573 0.391977 96.496 0.391977 93.68C0.391977 91.0347 1.05331 88.7307 2.37598 86.768C3.69864 84.8053 5.55464 83.312 7.94398 82.288C10.3333 81.2213 13.064 80.688 16.136 80.688C20.744 80.688 24.4773 81.8187 27.336 84.08C30.2373 86.2987 31.8373 89.4133 32.136 93.424H22.28C22.1946 91.888 21.5333 90.6293 20.296 89.648C19.1013 88.624 17.5013 88.112 15.496 88.112C13.7466 88.112 12.3386 88.56 11.272 89.456C10.248 90.352 9.73598 91.6533 9.73598 93.36C9.73598 94.5547 10.12 95.5573 10.888 96.368C11.6986 97.136 12.68 97.776 13.832 98.288C15.0266 98.7573 16.6906 99.312 18.824 99.952C21.7253 100.805 24.0933 101.659 25.928 102.512C27.7626 103.365 29.3413 104.645 30.664 106.352C31.9866 108.059 32.648 110.299 32.648 113.072C32.648 115.461 32.0293 117.68 30.792 119.728C29.5546 121.776 27.7413 123.419 25.352 124.656C22.9626 125.851 20.1253 126.448 16.84 126.448Z" fill="url(#paint9_linear_16_84)"/>
<defs>
<linearGradient id="paint0_linear_16_84" x1="181.988" y1="89.2073" x2="227" y2="89.2073" gradientUnits="userSpaceOnUse">
<stop stop-color="#B224EF"/>
<stop offset="1" stop-color="#7579FF"/>
</linearGradient>
<linearGradient id="paint1_linear_16_84" x1="179.667" y1="62.6612" x2="198.181" y2="62.6612" gradientUnits="userSpaceOnUse">
<stop stop-color="#B224EF"/>
<stop offset="1" stop-color="#7579FF"/>
</linearGradient>
<linearGradient id="paint2_linear_16_84" x1="167.156" y1="15.62" x2="182.77" y2="15.62" gradientUnits="userSpaceOnUse">
<stop stop-color="#B224EF"/>
<stop offset="1" stop-color="#7579FF"/>
</linearGradient>
<linearGradient id="paint3_linear_16_84" x1="71" y1="39.7817" x2="200.686" y2="39.7817" gradientUnits="userSpaceOnUse">
<stop stop-color="#B224EF"/>
<stop offset="1" stop-color="#7579FF"/>
</linearGradient>
<linearGradient id="paint4_linear_16_84" x1="129.308" y1="108.272" x2="158.748" y2="108.272" gradientUnits="userSpaceOnUse">
<stop stop-color="#B224EF"/>
<stop offset="1" stop-color="#7579FF"/>
</linearGradient>
<linearGradient id="paint5_linear_16_84" x1="113.416" y1="102.32" x2="122.376" y2="102.32" gradientUnits="userSpaceOnUse">
<stop stop-color="#B224EF"/>
<stop offset="1" stop-color="#7579FF"/>
</linearGradient>
<linearGradient id="paint6_linear_16_84" x1="95.6035" y1="102.32" x2="104.563" y2="102.32" gradientUnits="userSpaceOnUse">
<stop stop-color="#B224EF"/>
<stop offset="1" stop-color="#7579FF"/>
</linearGradient>
<linearGradient id="paint7_linear_16_84" x1="76.831" y1="100.912" x2="87.839" y2="100.912" gradientUnits="userSpaceOnUse">
<stop stop-color="#B224EF"/>
<stop offset="1" stop-color="#7579FF"/>
</linearGradient>
<linearGradient id="paint8_linear_16_84" x1="40.416" y1="102.32" x2="73.056" y2="102.32" gradientUnits="userSpaceOnUse">
<stop stop-color="#B224EF"/>
<stop offset="1" stop-color="#7579FF"/>
</linearGradient>
<linearGradient id="paint9_linear_16_84" x1="0.263977" y1="103.568" x2="32.648" y2="103.568" gradientUnits="userSpaceOnUse">
<stop stop-color="#B224EF"/>
<stop offset="1" stop-color="#7579FF"/>
</linearGradient>
</defs>
</svg>
