<svg width="174" height="31" viewBox="0 0 174 31" fill="none" xmlns="http://www.w3.org/2000/svg">
<g filter="url(#filter0_d_16_311)">
<path fill-rule="evenodd" clip-rule="evenodd" d="M48.2447 13.5446C41.1129 15.6231 32.8789 17.6916 24.9577 18.2081C18.1874 18.6489 11.6478 17.9642 6.29514 15.051C5.5406 14.6408 4.59571 14.9228 4.18765 15.6819C3.77896 16.4403 4.06012 17.3902 4.81467 17.801C10.6538 20.9781 17.7737 21.8091 25.1586 21.3277C33.2222 20.8024 41.6049 18.7202 48.8798 16.6117C49.7239 18.3306 51.4718 19.9332 54.551 21.1157C59.2804 22.9321 65.7378 22.9096 72.5405 21.886C82.4068 20.4022 93.0201 16.8637 99.844 14.3494C100.124 14.2468 100.541 14.0836 101.051 13.8685C101.206 14.2137 101.38 14.5539 101.573 14.8878C103.247 17.7979 106.208 20.1508 109.224 20.9912C128.359 26.32 150.69 19.9351 168.872 14.7389C169.693 14.5032 170.172 13.6378 169.942 12.808C169.706 11.9783 168.848 11.4962 168.02 11.7319C150.348 16.783 128.651 23.156 110.052 17.9779C107.763 17.3401 105.536 15.5318 104.267 13.3233C104.124 13.0769 103.999 12.8249 103.881 12.5692C106.388 11.3205 109.336 9.57965 110.923 7.71627C112.552 5.806 112.957 3.76692 111.538 1.84102C110.319 0.194622 108.472 0.054553 106.55 0.908079C104.478 1.82226 102.345 3.95948 101.654 4.96245C100.36 6.83583 99.9497 8.86806 100.186 10.8496C99.5765 11.1085 99.0814 11.3011 98.7759 11.4136C92.1014 13.8723 81.7275 17.3427 72.0802 18.794C65.8728 19.7282 59.9764 19.8526 55.6607 18.1955C53.82 17.4883 52.6039 16.663 51.9439 15.705C53.2465 15.3136 54.5024 14.9284 55.7024 14.5607C58.0755 13.8335 63.0164 12.6298 66.5465 10.4844C69.3538 8.77865 71.2572 6.45818 71.1465 3.54932C71.0899 2.05487 70.2296 1.05751 68.8605 0.498493C66.8146 -0.336274 63.2764 0.0676573 61.9589 0.349039C57.9629 1.20069 52.6295 4.72611 49.9907 8.6986C48.9376 10.2837 48.3112 11.942 48.2447 13.5446ZM51.5272 12.5679C52.6562 12.2265 53.7473 11.8913 54.7954 11.5699C57.0105 10.8909 61.641 9.81223 64.9372 7.80879C66.6827 6.74829 68.1078 5.47771 68.0388 3.66874C68.0332 3.52804 67.8944 3.48804 67.7719 3.43051C67.5822 3.34234 67.3651 3.28167 67.1337 3.23415C65.568 2.91275 63.4649 3.22351 62.6039 3.40734C59.2511 4.12205 54.791 7.10159 52.5772 10.435C52.1094 11.1391 51.7368 11.8563 51.5272 12.5679ZM103.259 9.41018C104.721 8.6542 106.251 7.74001 107.458 6.74517C108.099 6.2168 108.64 5.67344 108.982 5.10942C109.268 4.64295 109.38 4.1652 109.038 3.70373C108.901 3.51677 108.696 3.51304 108.484 3.54806C108.26 3.58558 108.03 3.66559 107.8 3.76877C106.282 4.44033 104.715 6.0092 104.211 6.74517C103.62 7.59869 103.327 8.50163 103.259 9.41018Z" fill="url(#paint0_linear_16_311)"/>
</g>
<defs>
<filter id="filter0_d_16_311" x="0" y="0" width="174" height="31" filterUnits="userSpaceOnUse" color-interpolation-filters="sRGB">
<feFlood flood-opacity="0" result="BackgroundImageFix"/>
<feColorMatrix in="SourceAlpha" type="matrix" values="0 0 0 0 0 0 0 0 0 0 0 0 0 0 0 0 0 0 127 0" result="hardAlpha"/>
<feOffset dy="4"/>
<feGaussianBlur stdDeviation="2"/>
<feComposite in2="hardAlpha" operator="out"/>
<feColorMatrix type="matrix" values="0 0 0 0 0 0 0 0 0 0 0 0 0 0 0 0 0 0 0.25 0"/>
<feBlend mode="normal" in2="BackgroundImageFix" result="effect1_dropShadow_16_311"/>
<feBlend mode="normal" in="SourceGraphic" in2="effect1_dropShadow_16_311" result="shape"/>
</filter>
<linearGradient id="paint0_linear_16_311" x1="4" y1="11.5" x2="170" y2="11.5" gradientUnits="userSpaceOnUse">
<stop stop-color="#B224EF"/>
<stop offset="1" stop-color="#7579FF"/>
</linearGradient>
</defs>
</svg>
